<?xml version="1.0" standalone="no"?>
<!DOCTYPE svg PUBLIC "-//W3C//DTD SVG 20010904//EN"
 "http://www.w3.org/TR/2001/REC-SVG-20010904/DTD/svg10.dtd">
<svg version="1.0" xmlns="http://www.w3.org/2000/svg"
 width="225.000000pt" height="225.000000pt" viewBox="0 0 225.000000 225.000000"
 preserveAspectRatio="xMidYMid meet">

<g transform="translate(0.000000,225.000000) scale(0.100000,-0.100000)"
fill="#000000" stroke="none">
<path d="M502 1545 c-54 -17 -72 -32 -72 -60 0 -33 7 -35 65 -14 103 36 176
18 194 -49 13 -44 14 -69 4 -75 -5 -3 -35 -1 -68 4 -117 17 -205 -31 -220
-119 -12 -75 40 -149 113 -159 60 -8 108 4 146 37 l33 29 22 -29 c25 -34 37
-36 69 -12 22 17 22 19 7 55 -11 26 -15 72 -15 162 0 153 -15 195 -83 226 -49
22 -132 24 -195 4z m182 -261 c35 -13 5 -104 -43 -128 -34 -18 -84 -21 -111
-6 -29 16 -42 67 -25 100 8 16 20 30 27 33 19 8 133 8 152 1z"/>
<path d="M1605 1546 c-58 -22 -95 -67 -95 -116 0 -80 34 -113 152 -150 80 -24
106 -49 92 -88 -5 -14 -21 -32 -34 -39 -34 -17 -108 -16 -160 2 -57 20 -60 20
-60 -15 0 -40 44 -62 137 -68 60 -4 79 -1 118 18 57 28 85 70 85 129 0 59 -42
100 -130 130 -36 12 -76 28 -88 37 -30 20 -29 68 0 88 28 20 108 21 154 1 38
-16 50 -7 42 32 -8 42 -139 66 -213 39z"/>
<path d="M1383 1538 c-6 -7 -20 -53 -32 -103 -38 -158 -69 -260 -74 -245 -3 8
-22 89 -44 180 l-38 165 -47 3 c-54 4 -45 21 -92 -183 -35 -151 -42 -173 -49
-155 -4 8 -20 71 -37 140 -55 223 -44 200 -96 200 -38 0 -45 -3 -40 -17 7 -29
86 -292 110 -368 l21 -70 43 -3 c51 -4 48 -10 92 189 18 79 36 148 40 152 4 5
24 -60 44 -145 47 -198 48 -198 88 -198 18 0 38 4 44 8 14 9 155 442 148 454
-8 13 -70 9 -81 -4z"/>
<path d="M1700 961 c-38 -12 -93 -42 -87 -48 3 -3 52 -6 109 -6 l103 -2 3 -35
c1 -19 -8 -68 -22 -107 -19 -56 -22 -73 -11 -73 37 0 103 121 112 204 6 53 5
56 -21 66 -31 11 -149 12 -186 1z"/>
<path d="M340 932 c0 -23 134 -123 242 -180 286 -151 652 -172 958 -54 90 34
219 108 227 129 10 24 -17 32 -56 16 -19 -8 -78 -28 -131 -44 -370 -114 -763
-82 -1127 92 -109 52 -113 54 -113 41z"/>
</g>
</svg>
