<?xml version="1.0" standalone="no"?>
<!DOCTYPE svg PUBLIC "-//W3C//DTD SVG 20010904//EN"
 "http://www.w3.org/TR/2001/REC-SVG-20010904/DTD/svg10.dtd">
<svg version="1.0" xmlns="http://www.w3.org/2000/svg"
 width="225.000000pt" height="225.000000pt" viewBox="0 0 225.000000 225.000000"
 preserveAspectRatio="xMidYMid meet">

<g transform="translate(0.000000,225.000000) scale(0.100000,-0.100000)"
fill="#000000" stroke="none">
<path d="M1208 1688 l-73 -143 -392 -3 -393 -2 0 -595 0 -595 492 0 492 0 -41
43 c-23 23 -56 67 -72 97 -31 57 -34 56 -46 -12 -7 -46 -28 -68 -65 -68 -63 0
-130 136 -130 262 0 33 9 95 20 139 l21 80 -25 32 c-28 36 -45 73 -86 188 -16
46 -46 102 -74 137 -75 98 -83 137 -37 183 47 46 116 35 227 -38 35 -23 63
-33 90 -33 100 -1 268 -94 388 -214 91 -91 150 -179 214 -323 32 -70 74 -157
93 -192 31 -59 39 -65 92 -87 32 -12 86 -42 120 -66 34 -24 68 -47 75 -51 9
-7 12 135 12 697 l0 706 -415 0 -414 0 -73 -142z m762 -73 l0 -75 -275 0
c-151 0 -275 2 -275 5 0 3 16 37 35 75 l35 70 240 0 240 0 0 -75z"/>
<path d="M837 1403 c-15 -14 -4 -42 47 -121 32 -48 66 -116 82 -165 31 -96 58
-153 86 -184 23 -24 22 -51 -7 -153 -18 -67 -19 -137 -1 -212 13 -56 39 -108
54 -108 5 0 14 33 20 73 12 69 55 157 69 143 4 -3 19 -38 35 -77 29 -72 92
-187 125 -227 l18 -22 375 2 375 3 -85 57 c-47 31 -119 68 -160 83 -89 31 -98
42 -179 225 -85 190 -119 252 -174 320 -114 140 -296 258 -415 268 -42 3 -65
11 -87 30 -58 48 -158 85 -178 65z m310 -205 c26 -25 28 -37 10 -62 -11 -16
-15 -14 -40 24 -38 58 -18 83 30 38z"/>
</g>
</svg>
