<?xml version="1.0" standalone="no"?>
<!DOCTYPE svg PUBLIC "-//W3C//DTD SVG 20010904//EN"
 "http://www.w3.org/TR/2001/REC-SVG-20010904/DTD/svg10.dtd">
<svg version="1.0" xmlns="http://www.w3.org/2000/svg"
 width="225.000000pt" height="225.000000pt" viewBox="0 0 225.000000 225.000000"
 preserveAspectRatio="xMidYMid meet">

<g transform="translate(0.000000,225.000000) scale(0.100000,-0.100000)"
fill="#000000" stroke="none">
<path d="M310 2057 c-35 -18 -35 -38 1 -83 l31 -39 -41 -36 c-36 -32 -40 -40
-35 -71 8 -48 -8 -74 -52 -85 -45 -10 -64 -35 -47 -61 9 -16 7 -20 -18 -29
-64 -25 -86 -118 -49 -209 11 -27 35 -111 54 -186 135 -539 466 -918 889
-1018 270 -64 635 -68 825 -8 40 13 77 18 99 15 20 -4 48 0 66 8 18 7 54 17
81 22 55 9 78 32 60 61 -9 13 -28 18 -85 20 -40 2 -78 7 -85 13 -8 6 -16 4
-25 -7 -10 -12 -22 -14 -54 -9 -22 4 -63 8 -92 9 -29 1 -54 4 -58 7 -3 3 8 23
25 44 35 44 34 59 -1 63 -28 3 -80 -32 -76 -51 1 -7 -3 -11 -9 -10 -7 1 -20
-7 -29 -17 -10 -11 -28 -20 -40 -20 -42 0 -199 51 -280 90 -188 92 -385 303
-455 487 -59 157 -115 608 -81 662 10 15 52 12 134 -10 115 -30 63 47 -64 94
-105 39 -201 88 -224 115 -13 14 -40 26 -74 32 -62 12 -84 26 -76 50 8 27 -20
43 -60 36 -20 -4 -44 -2 -55 4 -18 10 -20 17 -15 54 5 29 3 45 -7 53 -24 19
-53 23 -78 10z m54 -13 c20 -20 11 -36 -17 -32 -12 1 -28 -1 -34 -5 -19 -12
-16 18 3 37 19 20 29 20 48 0z m91 -134 c3 -5 -3 -10 -15 -10 -12 0 -18 5 -15
10 3 6 10 10 15 10 5 0 12 -4 15 -10z m20 -60 c7 0 23 -9 36 -21 13 -11 18
-18 12 -14 -9 4 -13 -1 -13 -14 0 -30 -34 -27 -59 5 -25 32 -28 59 -5 50 9 -3
22 -6 29 -6z m-41 -56 c-32 -8 -104 -10 -97 -4 17 17 78 27 92 16 7 -5 9 -11
5 -12z m158 -22 c-1 -7 3 -23 10 -35 10 -19 9 -20 -4 -10 -12 11 -17 8 -27
-13 -11 -25 -10 -26 11 -20 13 3 40 9 60 12 34 6 36 5 31 -15 -3 -14 0 -23 11
-27 24 -9 32 3 19 26 -16 24 0 30 83 30 48 0 66 -4 70 -15 8 -20 -20 -62 -54
-78 -40 -20 -147 -45 -227 -53 -46 -4 -96 -18 -146 -40 -81 -36 -99 -40 -99
-24 0 18 -39 11 -59 -11 -22 -24 -48 -20 -76 11 -15 16 -15 22 -5 35 10 13 9
15 -9 15 -23 0 -41 -33 -41 -78 l-1 -27 -15 28 c-23 43 -11 75 39 97 55 25 77
25 77 0 0 -10 9 -24 19 -30 25 -13 61 -13 61 0 0 6 -5 10 -11 10 -6 0 -9 6 -6
14 3 8 -1 17 -9 20 -28 11 -13 22 44 34 32 7 92 22 134 35 l76 22 -25 30 c-14
17 -27 25 -29 19 -3 -7 -23 -9 -52 -7 -26 2 -68 -2 -94 -10 -27 -8 -48 -12
-48 -8 0 9 258 80 280 77 8 -1 14 -8 12 -14z m-356 -87 c-11 -8 -27 -15 -35
-14 -9 0 -2 7 14 14 39 18 45 18 21 0z m758 -38 c11 -8 17 -19 15 -26 -3 -8
-13 -3 -28 13 -26 28 -17 35 13 13z m-190 -100 c7 -18 6 -44 0 -77 -6 -27 -7
-51 -2 -52 5 -2 11 -50 13 -107 3 -57 9 -109 15 -116 7 -8 4 -19 -10 -35 -11
-13 -20 -28 -20 -34 0 -6 7 -3 14 7 19 25 23 22 31 -25 4 -24 19 -79 32 -123
17 -53 22 -80 14 -83 -6 -2 -11 -7 -11 -12 0 -11 59 -70 68 -68 4 1 22 -18 40
-43 18 -24 52 -70 77 -102 25 -31 45 -64 45 -71 0 -34 151 -136 203 -136 10 0
20 -7 23 -15 8 -20 71 -58 84 -50 5 3 10 1 10 -4 0 -6 14 -11 30 -11 17 0 30
-4 30 -10 0 -5 25 -17 55 -25 30 -9 55 -20 55 -25 0 -26 -103 -11 -195 30 -67
29 -140 30 -192 2 -19 -10 -24 -9 -41 13 -11 14 -30 25 -43 25 -40 0 -61 29
-39 55 8 9 -2 13 -46 18 -30 3 -66 13 -80 22 -27 17 -34 51 -8 41 9 -3 23 -6
32 -6 15 0 15 -2 2 -10 -13 -9 -13 -11 0 -20 8 -5 31 -10 50 -10 l34 0 -49 51
c-47 47 -85 70 -267 154 -21 9 -38 21 -38 26 0 6 9 5 20 -1 11 -6 24 -8 29 -6
5 3 12 -1 15 -10 4 -9 13 -14 22 -10 8 3 12 2 9 -4 -3 -6 3 -10 14 -10 12 0
21 7 21 16 0 30 -22 56 -63 73 -23 10 -48 26 -56 34 -11 15 -10 18 13 27 35
13 33 33 -10 78 l-35 37 15 -32 c18 -37 19 -43 7 -43 -5 0 -14 14 -20 30 -13
38 -37 48 -56 24 -8 -11 -14 -14 -15 -6 0 6 -9 12 -20 12 -21 0 -40 27 -40 56
0 10 -14 33 -32 51 l-32 33 32 -6 c39 -8 43 10 11 50 l-21 27 -22 -20 c-31
-29 -36 -27 -36 20 0 24 -4 38 -10 34 -5 -3 -10 -19 -10 -36 0 -21 -5 -29 -17
-29 -13 0 -7 -10 20 -38 36 -37 36 -38 15 -51 -21 -13 -21 -14 11 -27 47 -20
54 -18 47 11 -4 14 -2 25 3 25 6 0 13 -17 17 -37 4 -21 18 -51 32 -68 34 -40
15 -42 -60 -4 -67 33 -81 49 -84 89 -3 38 -21 78 -42 91 -11 7 -17 19 -15 30
3 11 -5 24 -21 35 l-27 17 22 23 c27 29 40 30 57 4 7 -12 8 -20 2 -20 -16 0
-12 -46 5 -60 13 -11 15 -6 15 38 0 55 -12 71 -63 81 -23 5 -33 13 -35 29 -2
12 1 22 6 22 5 0 12 9 15 19 3 12 15 21 32 23 37 4 54 31 37 58 -6 11 -12 29
-12 40 0 16 7 20 33 20 35 0 81 26 72 41 -4 5 7 9 24 9 16 0 33 5 37 11 4 7
20 8 42 4 31 -6 34 -5 23 9 -11 13 -7 16 26 25 101 26 125 24 137 -12z m-604
-71 c0 -11 -19 -15 -25 -6 -3 5 1 10 9 10 9 0 16 -2 16 -4z m193 -53 c13 -7
-13 -33 -34 -33 -24 0 -36 20 -12 21 14 0 14 2 -4 9 -13 5 -23 12 -23 15 0 7
58 -3 73 -12z m-105 -24 c-2 -6 -8 -10 -13 -10 -5 0 -11 4 -13 10 -2 6 4 11
13 11 9 0 15 -5 13 -11z m17 -35 c-9 -9 -19 -13 -23 -10 -3 4 0 11 8 16 24 15
33 11 15 -6z m-10 -54 c8 -13 -15 -13 -35 0 -12 8 -11 10 7 10 12 0 25 -4 28
-10z m-85 -36 c0 -8 -4 -12 -10 -9 -5 3 -10 10 -10 16 0 5 5 9 10 9 6 0 10 -7
10 -16z m78 -3 c3 -8 -1 -12 -9 -9 -7 2 -15 10 -17 17 -3 8 1 12 9 9 7 -2 15
-10 17 -17z m-13 -21 c3 -5 2 -10 -4 -10 -5 0 -13 5 -16 10 -3 6 -2 10 4 10 5
0 13 -4 16 -10z m-12 -131 c3 -19 14 -58 25 -88 l21 -53 -21 18 c-17 16 -15 7
12 -46 32 -65 70 -121 123 -185 15 -18 33 -50 41 -72 8 -23 23 -43 39 -51 15
-7 34 -26 42 -43 9 -16 20 -29 26 -29 5 0 23 -16 40 -35 17 -19 36 -35 42 -35
13 0 57 -40 57 -53 0 -42 -174 97 -234 188 -162 245 -221 348 -212 372 3 8
-12 53 -34 101 -38 84 -44 115 -16 76 13 -17 14 -16 10 11 -5 30 -5 30 15 -6
11 -20 22 -52 24 -70z m114 -35 c-3 -3 -12 -4 -19 -1 -8 3 -5 6 6 6 11 1 17
-2 13 -5z m323 -214 c0 -5 -4 -10 -10 -10 -5 0 -10 5 -10 10 0 6 5 10 10 10 6
0 10 -4 10 -10z m-77 -16 c29 -7 37 -24 12 -24 -18 0 -20 -20 -2 -21 9 0 9 -2
-1 -6 -9 -3 -4 -15 15 -41 32 -42 55 -82 48 -82 -10 0 -135 72 -141 82 -4 6 4
5 17 -2 22 -10 21 -9 -4 14 -15 14 -22 26 -15 26 8 1 5 7 -7 16 -17 13 -18 16
-5 24 8 5 19 10 23 10 5 0 5 5 1 11 -4 7 0 9 12 6 11 -4 31 -9 47 -13z m-118
-24 c3 -5 2 -10 -4 -10 -5 0 -13 5 -16 10 -3 6 -2 10 4 10 5 0 13 -4 16 -10z
m142 -156 c-3 -3 -12 -4 -19 -1 -8 3 -5 6 6 6 11 1 17 -2 13 -5z m113 -14 c13
-9 13 -10 0 -10 -8 0 -22 5 -30 10 -13 9 -13 10 0 10 8 0 22 -5 30 -10z m-23
-40 c18 -7 30 -17 27 -22 -10 -16 -102 -3 -124 17 -39 35 9 38 97 5z m168 -8
c19 -11 19 -11 -3 -12 -13 0 -32 5 -43 11 -11 6 -25 8 -32 5 -7 -2 -2 -8 11
-11 19 -6 32 -25 17 -25 -14 0 -73 29 -79 38 -9 15 103 9 129 -6z m-35 -52
c13 -9 13 -10 0 -10 -8 0 -22 5 -30 10 -13 9 -13 10 0 10 8 0 22 -5 30 -10z
m6 -56 c18 -14 18 -15 -6 -8 -31 8 -50 24 -29 24 8 0 24 -7 35 -16z m-76 -48
c0 -3 -4 -8 -10 -11 -5 -3 -10 -1 -10 4 0 6 5 11 10 11 6 0 10 -2 10 -4z m97
-2 c-3 -3 -12 -4 -19 -1 -8 3 -5 6 6 6 11 1 17 -2 13 -5z m48 -14 c3 -5 2 -10
-4 -10 -5 0 -13 5 -16 10 -3 6 -2 10 4 10 5 0 13 -4 16 -10z m122 -16 c-3 -3
-12 -4 -19 -1 -8 3 -5 6 6 6 11 1 17 -2 13 -5z m-251 -32 c-3 -5 16 -19 42
-32 78 -38 114 -52 107 -41 -3 6 -1 11 4 11 6 0 11 -7 11 -15 0 -17 0 -17 68
-19 62 -3 148 -28 114 -34 -13 -2 -47 4 -74 13 -28 9 -52 14 -55 11 -3 -2 26
-14 63 -26 69 -21 236 -35 377 -31 37 1 75 -3 85 -8 13 -8 -2 -11 -58 -12
-216 -3 -360 14 -518 63 -76 23 -197 81 -208 100 -4 7 13 0 38 -15 26 -15 50
-27 55 -27 4 0 -12 12 -36 26 -32 20 -40 29 -30 35 18 11 22 11 15 1z m69 -12
c3 -5 1 -10 -4 -10 -6 0 -11 5 -11 10 0 6 2 10 4 10 3 0 8 -4 11 -10z m473
-46 c-2 -14 -12 -19 -36 -19 -39 0 -40 7 -5 35 29 22 47 15 41 -16z m48 -6
c-3 -13 -5 -26 -5 -30 -2 -16 -20 -7 -26 13 -5 14 -2 25 6 30 23 14 29 10 25
-13z m439 1 c5 -5 -29 -9 -88 -9 -90 0 -108 5 -89 24 9 10 164 -3 177 -15z
m55 1 c0 -5 -5 -10 -11 -10 -5 0 -7 5 -4 10 3 6 8 10 11 10 2 0 4 -4 4 -10z
m225 0 c-3 -5 -27 -10 -53 -9 -38 1 -42 2 -22 9 37 12 82 12 75 0z m-925 -20
c0 -5 -5 -10 -11 -10 -5 0 -7 5 -4 10 3 6 8 10 11 10 2 0 4 -4 4 -10z m245 0
c-3 -5 -11 -10 -16 -10 -6 0 -7 5 -4 10 3 6 11 10 16 10 6 0 7 -4 4 -10z m20
-20 c-3 -5 -11 -10 -16 -10 -6 0 -7 5 -4 10 3 6 11 10 16 10 6 0 7 -4 4 -10z
m55 -5 c-7 -8 -17 -15 -22 -15 -6 0 -5 7 2 15 7 8 17 15 22 15 6 0 5 -7 -2
-15z"/>
<path d="M739 1683 c-13 -15 -12 -15 9 -4 23 12 28 21 13 21 -5 0 -15 -7 -22
-17z"/>
<path d="M495 1650 c-14 -5 -5 -7 28 -5 26 1 51 5 54 9 9 9 -59 6 -82 -4z"/>
<path d="M410 1611 c0 -14 18 -23 31 -15 8 4 7 9 -2 15 -18 11 -29 11 -29 0z"/>
<path d="M370 1582 c0 -10 50 -35 57 -29 2 3 -3 12 -12 21 -17 17 -45 22 -45
8z"/>
<path d="M750 1465 c-6 -19 -8 -44 -5 -56 7 -20 8 -20 24 -4 11 12 12 19 4 22
-7 3 -10 17 -6 39 7 44 -2 44 -17 -1z"/>
<path d="M781 1454 c0 -11 3 -14 6 -6 3 7 2 16 -1 19 -3 4 -6 -2 -5 -13z"/>
<path d="M550 1400 c0 -5 5 -10 11 -10 5 0 7 5 4 10 -3 6 -8 10 -11 10 -2 0
-4 -4 -4 -10z"/>
<path d="M512 1375 c1 -10 14 -25 28 -34 22 -14 24 -14 13 0 -7 9 -10 18 -7
22 3 3 -4 11 -16 17 -19 10 -21 9 -18 -5z"/>
<path d="M467 1315 c5 -16 72 -49 80 -41 5 5 -68 56 -79 56 -4 0 -5 -7 -1 -15z"/>
<path d="M520 1320 c8 -5 20 -10 25 -10 6 0 3 5 -5 10 -8 5 -19 10 -25 10 -5
0 -3 -5 5 -10z"/>
<path d="M454 1281 c11 -11 23 -21 28 -21 14 0 -1 19 -25 31 -22 12 -22 12 -3
-10z"/>
<path d="M424 1243 c17 -18 33 -33 38 -33 12 0 10 34 -4 48 -15 15 -32 16 -23
2 9 -14 -8 -12 -25 3 -8 6 -2 -3 14 -20z"/>
<path d="M710 1179 c1 -39 17 -79 32 -79 10 0 16 40 7 45 -4 3 -6 12 -3 20 3
8 -4 24 -15 36 l-21 23 0 -45z"/>
<path d="M570 1196 c0 -4 5 -16 11 -28 6 -11 8 -22 6 -25 -3 -3 -13 8 -21 24
l-16 28 6 -30 c9 -45 31 -74 54 -72 24 2 33 22 21 45 -11 21 -61 68 -61 58z"/>
<path d="M857 930 c3 -11 7 -20 9 -20 2 0 4 9 4 20 0 11 -4 20 -9 20 -5 0 -7
-9 -4 -20z"/>
<path d="M956 757 c3 -10 9 -15 12 -12 3 3 0 11 -7 18 -10 9 -11 8 -5 -6z"/>
<path d="M1010 679 c0 -9 10 -24 21 -35 22 -19 22 -19 11 1 -6 11 -16 27 -22
35 -8 13 -10 13 -10 -1z"/>
</g>
</svg>
